G04 #@! TF.GenerationSoftware,KiCad,Pcbnew,(5.1.0-0)*
G04 #@! TF.CreationDate,2019-04-07T15:46:55-04:00*
G04 #@! TF.ProjectId,Sonocto,536f6e6f-6374-46f2-9e6b-696361645f70,rev?*
G04 #@! TF.SameCoordinates,Original*
G04 #@! TF.FileFunction,Soldermask,Top*
G04 #@! TF.FilePolarity,Negative*
%FSLAX46Y46*%
G04 Gerber Fmt 4.6, Leading zero omitted, Abs format (unit mm)*
G04 Created by KiCad (PCBNEW (5.1.0-0)) date 2019-04-07 15:46:55*
%MOMM*%
%LPD*%
G04 APERTURE LIST*
%ADD10C,6.501600*%
%ADD11O,1.801600X1.801600*%
%ADD12R,1.801600X1.801600*%
%ADD13O,1.501600X1.501600*%
%ADD14C,1.501600*%
%ADD15O,1.701600X1.701600*%
%ADD16R,1.701600X1.701600*%
%ADD17O,2.006600X2.101600*%
%ADD18R,2.006600X2.101600*%
%ADD19C,1.901600*%
%ADD20R,1.901600X1.901600*%
%ADD21C,1.701600*%
G04 APERTURE END LIST*
D10*
X180340000Y-116840000D03*
X99060000Y-116840000D03*
X99060000Y-63500000D03*
X180340000Y-63500000D03*
D11*
X114300000Y-78740000D03*
X111760000Y-78740000D03*
X114300000Y-76200000D03*
D12*
X111760000Y-76200000D03*
D13*
X121920000Y-73030000D03*
D14*
X121920000Y-74930000D03*
D13*
X125095000Y-73030000D03*
D14*
X125095000Y-74930000D03*
D13*
X128905000Y-70490000D03*
D14*
X128905000Y-72390000D03*
D13*
X131445000Y-70490000D03*
D14*
X131445000Y-72390000D03*
D13*
X141605000Y-70490000D03*
D14*
X141605000Y-72390000D03*
D13*
X139065000Y-70490000D03*
D14*
X139065000Y-72390000D03*
D13*
X136525000Y-70485000D03*
D14*
X136525000Y-72385000D03*
D13*
X133985000Y-70490000D03*
D14*
X133985000Y-72390000D03*
D13*
X105410000Y-102240000D03*
D14*
X105410000Y-104140000D03*
D13*
X106040000Y-76200000D03*
D14*
X104140000Y-76200000D03*
D13*
X106040000Y-78740000D03*
D14*
X104140000Y-78740000D03*
D15*
X129540000Y-99060000D03*
X147320000Y-106680000D03*
X132080000Y-99060000D03*
X144780000Y-106680000D03*
X134620000Y-99060000D03*
X142240000Y-106680000D03*
X137160000Y-99060000D03*
X139700000Y-106680000D03*
X139700000Y-99060000D03*
X137160000Y-106680000D03*
X142240000Y-99060000D03*
X134620000Y-106680000D03*
X144780000Y-99060000D03*
X132080000Y-106680000D03*
X147320000Y-99060000D03*
D16*
X129540000Y-106680000D03*
D15*
X147320000Y-83820000D03*
X129540000Y-76200000D03*
X144780000Y-83820000D03*
X132080000Y-76200000D03*
X142240000Y-83820000D03*
X134620000Y-76200000D03*
X139700000Y-83820000D03*
X137160000Y-76200000D03*
X137160000Y-83820000D03*
X139700000Y-76200000D03*
X134620000Y-83820000D03*
X142240000Y-76200000D03*
X132080000Y-83820000D03*
X144780000Y-76200000D03*
X129540000Y-83820000D03*
D16*
X147320000Y-76200000D03*
D15*
X116840000Y-86360000D03*
X109220000Y-101600000D03*
X116840000Y-88900000D03*
X109220000Y-99060000D03*
X116840000Y-91440000D03*
X109220000Y-96520000D03*
X116840000Y-93980000D03*
X109220000Y-93980000D03*
X116840000Y-96520000D03*
X109220000Y-91440000D03*
X116840000Y-99060000D03*
X109220000Y-88900000D03*
X116840000Y-101600000D03*
D16*
X109220000Y-86360000D03*
D17*
X124460000Y-67945000D03*
X121920000Y-67945000D03*
D18*
X119380000Y-67945000D03*
D11*
X119380000Y-109220000D03*
X116840000Y-109220000D03*
X114300000Y-109220000D03*
X111760000Y-109220000D03*
X109220000Y-109220000D03*
D12*
X106680000Y-109220000D03*
D11*
X177800000Y-99060000D03*
X175260000Y-99060000D03*
X172720000Y-99060000D03*
D12*
X170180000Y-99060000D03*
D11*
X177800000Y-96520000D03*
X175260000Y-96520000D03*
X172720000Y-96520000D03*
D12*
X170180000Y-96520000D03*
D11*
X177800000Y-93980000D03*
X175260000Y-93980000D03*
X172720000Y-93980000D03*
D12*
X170180000Y-93980000D03*
D11*
X177800000Y-91440000D03*
X175260000Y-91440000D03*
X172720000Y-91440000D03*
D12*
X170180000Y-91440000D03*
D11*
X177800000Y-88900000D03*
X175260000Y-88900000D03*
X172720000Y-88900000D03*
D12*
X170180000Y-88900000D03*
D11*
X177800000Y-86360000D03*
X175260000Y-86360000D03*
X172720000Y-86360000D03*
D12*
X170180000Y-86360000D03*
D11*
X177800000Y-83820000D03*
X175260000Y-83820000D03*
X172720000Y-83820000D03*
D12*
X170180000Y-83820000D03*
D11*
X177800000Y-81280000D03*
X175260000Y-81280000D03*
X172720000Y-81280000D03*
D12*
X170180000Y-81280000D03*
D11*
X106680000Y-72390000D03*
X106680000Y-69850000D03*
X106680000Y-67310000D03*
D12*
X106680000Y-64770000D03*
D19*
X101600000Y-88900000D03*
D20*
X104140000Y-88900000D03*
D19*
X123190000Y-87630000D03*
D20*
X123190000Y-90170000D03*
D21*
X131445000Y-67405000D03*
D16*
X131445000Y-65405000D03*
D21*
X112395000Y-68040000D03*
D16*
X112395000Y-66040000D03*
M02*
