M48
; DRILL file {KiCad (5.1.0-0)} date Sunday, April 07, 2019 at 04:06:37 PM
; FORMAT={-:-/ absolute / metric / decimal}
; #@! TF.CreationDate,2019-04-07T16:06:37-04:00
; #@! TF.GenerationSoftware,Kicad,Pcbnew,(5.1.0-0)
FMAT,2
METRIC
T1C0.700
T2C0.800
T3C0.900
T4C1.000
T5C1.100
T6C3.200
%
G90
G05
T1
X104.14Y-78.74
X106.04Y-78.74
X105.41Y-102.24
X105.41Y-104.14
X104.14Y-76.2
X106.04Y-76.2
X133.985Y-70.49
X133.985Y-72.39
X121.92Y-73.03
X121.92Y-74.93
X136.525Y-70.485
X136.525Y-72.385
X131.445Y-70.49
X131.445Y-72.39
X141.605Y-70.49
X141.605Y-72.39
X125.095Y-73.03
X125.095Y-74.93
X139.065Y-70.49
X139.065Y-72.39
X128.905Y-70.49
X128.905Y-72.39
T2
X129.54Y-76.2
X129.54Y-83.82
X132.08Y-76.2
X132.08Y-83.82
X134.62Y-76.2
X134.62Y-83.82
X137.16Y-76.2
X137.16Y-83.82
X139.7Y-76.2
X139.7Y-83.82
X142.24Y-76.2
X142.24Y-83.82
X144.78Y-76.2
X144.78Y-83.82
X147.32Y-76.2
X147.32Y-83.82
X112.395Y-66.04
X112.395Y-68.04
X109.22Y-86.36
X109.22Y-88.9
X109.22Y-91.44
X109.22Y-93.98
X109.22Y-96.52
X109.22Y-99.06
X109.22Y-101.6
X116.84Y-86.36
X116.84Y-88.9
X116.84Y-91.44
X116.84Y-93.98
X116.84Y-96.52
X116.84Y-99.06
X116.84Y-101.6
X129.54Y-99.06
X129.54Y-106.68
X132.08Y-99.06
X132.08Y-106.68
X134.62Y-99.06
X134.62Y-106.68
X137.16Y-99.06
X137.16Y-106.68
X139.7Y-99.06
X139.7Y-106.68
X142.24Y-99.06
X142.24Y-106.68
X144.78Y-99.06
X144.78Y-106.68
X147.32Y-99.06
X147.32Y-106.68
X131.445Y-65.405
X131.445Y-67.405
T3
X123.19Y-87.63
X123.19Y-90.17
X101.6Y-88.9
X104.14Y-88.9
T4
X170.18Y-88.9
X172.72Y-88.9
X175.26Y-88.9
X177.8Y-88.9
X170.18Y-93.98
X172.72Y-93.98
X175.26Y-93.98
X177.8Y-93.98
X111.76Y-76.2
X111.76Y-78.74
X114.3Y-76.2
X114.3Y-78.74
X170.18Y-104.14
X172.72Y-104.14
X175.26Y-104.14
X177.8Y-104.14
X106.68Y-109.22
X109.22Y-109.22
X111.76Y-109.22
X114.3Y-109.22
X116.84Y-109.22
X119.38Y-109.22
X170.18Y-99.06
X172.72Y-99.06
X175.26Y-99.06
X177.8Y-99.06
X170.18Y-78.74
X172.72Y-78.74
X177.8Y-109.22
X175.26Y-78.74
X177.8Y-78.74
X170.18Y-83.82
X172.72Y-83.82
X175.26Y-83.82
X177.8Y-83.82
X170.18Y-109.22
X172.72Y-109.22
X175.26Y-109.22
X106.68Y-64.77
X106.68Y-67.31
X106.68Y-69.85
X106.68Y-72.39
X170.18Y-73.66
X172.72Y-73.66
X175.26Y-73.66
X177.8Y-73.66
T5
X119.38Y-67.945
X121.92Y-67.945
X124.46Y-67.945
T6
X99.06Y-63.5
X180.34Y-116.84
X180.34Y-63.5
X99.06Y-116.84
T0
M30
