G04 #@! TF.GenerationSoftware,KiCad,Pcbnew,(5.1.0-0)*
G04 #@! TF.CreationDate,2019-04-07T16:06:34-04:00*
G04 #@! TF.ProjectId,SonoctoWide,536f6e6f-6374-46f5-9769-64652e6b6963,rev?*
G04 #@! TF.SameCoordinates,Original*
G04 #@! TF.FileFunction,Copper,L2,Bot*
G04 #@! TF.FilePolarity,Positive*
%FSLAX46Y46*%
G04 Gerber Fmt 4.6, Leading zero omitted, Abs format (unit mm)*
G04 Created by KiCad (PCBNEW (5.1.0-0)) date 2019-04-07 16:06:34*
%MOMM*%
%LPD*%
G04 APERTURE LIST*
%ADD10C,6.400000*%
%ADD11O,1.700000X1.700000*%
%ADD12R,1.700000X1.700000*%
%ADD13O,1.400000X1.400000*%
%ADD14C,1.400000*%
%ADD15O,1.600000X1.600000*%
%ADD16R,1.600000X1.600000*%
%ADD17O,1.905000X2.000000*%
%ADD18R,1.905000X2.000000*%
%ADD19C,1.800000*%
%ADD20R,1.800000X1.800000*%
%ADD21C,1.600000*%
%ADD22C,0.152400*%
G04 APERTURE END LIST*
D10*
X180340000Y-116840000D03*
X99060000Y-116840000D03*
X99060000Y-63500000D03*
X180340000Y-63500000D03*
D11*
X114300000Y-78740000D03*
X111760000Y-78740000D03*
X114300000Y-76200000D03*
D12*
X111760000Y-76200000D03*
D13*
X121920000Y-73030000D03*
D14*
X121920000Y-74930000D03*
D13*
X125095000Y-73030000D03*
D14*
X125095000Y-74930000D03*
D13*
X128905000Y-70490000D03*
D14*
X128905000Y-72390000D03*
D13*
X131445000Y-70490000D03*
D14*
X131445000Y-72390000D03*
D13*
X141605000Y-70490000D03*
D14*
X141605000Y-72390000D03*
D13*
X139065000Y-70490000D03*
D14*
X139065000Y-72390000D03*
D13*
X136525000Y-70485000D03*
D14*
X136525000Y-72385000D03*
D13*
X133985000Y-70490000D03*
D14*
X133985000Y-72390000D03*
D13*
X105410000Y-102240000D03*
D14*
X105410000Y-104140000D03*
D13*
X106040000Y-76200000D03*
D14*
X104140000Y-76200000D03*
D13*
X106040000Y-78740000D03*
D14*
X104140000Y-78740000D03*
D15*
X129540000Y-99060000D03*
X147320000Y-106680000D03*
X132080000Y-99060000D03*
X144780000Y-106680000D03*
X134620000Y-99060000D03*
X142240000Y-106680000D03*
X137160000Y-99060000D03*
X139700000Y-106680000D03*
X139700000Y-99060000D03*
X137160000Y-106680000D03*
X142240000Y-99060000D03*
X134620000Y-106680000D03*
X144780000Y-99060000D03*
X132080000Y-106680000D03*
X147320000Y-99060000D03*
D16*
X129540000Y-106680000D03*
D15*
X147320000Y-83820000D03*
X129540000Y-76200000D03*
X144780000Y-83820000D03*
X132080000Y-76200000D03*
X142240000Y-83820000D03*
X134620000Y-76200000D03*
X139700000Y-83820000D03*
X137160000Y-76200000D03*
X137160000Y-83820000D03*
X139700000Y-76200000D03*
X134620000Y-83820000D03*
X142240000Y-76200000D03*
X132080000Y-83820000D03*
X144780000Y-76200000D03*
X129540000Y-83820000D03*
D16*
X147320000Y-76200000D03*
D15*
X116840000Y-86360000D03*
X109220000Y-101600000D03*
X116840000Y-88900000D03*
X109220000Y-99060000D03*
X116840000Y-91440000D03*
X109220000Y-96520000D03*
X116840000Y-93980000D03*
X109220000Y-93980000D03*
X116840000Y-96520000D03*
X109220000Y-91440000D03*
X116840000Y-99060000D03*
X109220000Y-88900000D03*
X116840000Y-101600000D03*
D16*
X109220000Y-86360000D03*
D17*
X124460000Y-67945000D03*
X121920000Y-67945000D03*
D18*
X119380000Y-67945000D03*
D11*
X119380000Y-109220000D03*
X116840000Y-109220000D03*
X114300000Y-109220000D03*
X111760000Y-109220000D03*
X109220000Y-109220000D03*
D12*
X106680000Y-109220000D03*
D11*
X177800000Y-109220000D03*
X175260000Y-109220000D03*
X172720000Y-109220000D03*
D12*
X170180000Y-109220000D03*
D11*
X177800000Y-104140000D03*
X175260000Y-104140000D03*
X172720000Y-104140000D03*
D12*
X170180000Y-104140000D03*
D11*
X177800000Y-99060000D03*
X175260000Y-99060000D03*
X172720000Y-99060000D03*
D12*
X170180000Y-99060000D03*
D11*
X177800000Y-93980000D03*
X175260000Y-93980000D03*
X172720000Y-93980000D03*
D12*
X170180000Y-93980000D03*
D11*
X177800000Y-88900000D03*
X175260000Y-88900000D03*
X172720000Y-88900000D03*
D12*
X170180000Y-88900000D03*
D11*
X177800000Y-83820000D03*
X175260000Y-83820000D03*
X172720000Y-83820000D03*
D12*
X170180000Y-83820000D03*
D11*
X177800000Y-78740000D03*
X175260000Y-78740000D03*
X172720000Y-78740000D03*
D12*
X170180000Y-78740000D03*
D11*
X177800000Y-73660000D03*
X175260000Y-73660000D03*
X172720000Y-73660000D03*
D12*
X170180000Y-73660000D03*
D11*
X106680000Y-72390000D03*
X106680000Y-69850000D03*
X106680000Y-67310000D03*
D12*
X106680000Y-64770000D03*
D19*
X101600000Y-88900000D03*
D20*
X104140000Y-88900000D03*
D19*
X123190000Y-87630000D03*
D20*
X123190000Y-90170000D03*
D21*
X131445000Y-67405000D03*
D16*
X131445000Y-65405000D03*
D21*
X112395000Y-68040000D03*
D16*
X112395000Y-66040000D03*
D22*
X177800000Y-73660000D02*
X177800000Y-78740000D01*
X177800000Y-83820000D02*
X177800000Y-78740000D01*
X177800000Y-83820000D02*
X177800000Y-88900000D01*
X177800000Y-88900000D02*
X177800000Y-93980000D01*
X177800000Y-93980000D02*
X177800000Y-99060000D01*
X177800000Y-99060000D02*
X177800000Y-104140000D01*
X177800000Y-104140000D02*
X177800000Y-109220000D01*
X177800000Y-73660000D02*
X177800000Y-71120000D01*
X147320000Y-106680000D02*
X144780000Y-109220000D01*
X144780000Y-109220000D02*
X139700000Y-109220000D01*
X139700000Y-109220000D02*
X139700000Y-106680000D01*
X137160000Y-106680000D02*
X139700000Y-106680000D01*
X111760000Y-109220000D02*
X111760000Y-113030000D01*
X111760000Y-113030000D02*
X139700000Y-113030000D01*
X139700000Y-113030000D02*
X139700000Y-109220000D01*
X116840000Y-86360000D02*
X116840000Y-83820000D01*
X141605000Y-70490000D02*
X139065000Y-70490000D01*
X136530000Y-70490000D02*
X136525000Y-70485000D01*
X139065000Y-70490000D02*
X136530000Y-70490000D01*
X133990000Y-70485000D02*
X133985000Y-70490000D01*
X136525000Y-70485000D02*
X133990000Y-70485000D01*
X133985000Y-70490000D02*
X131445000Y-70490000D01*
X131445000Y-70490000D02*
X128905000Y-70490000D01*
X132080000Y-76200000D02*
X129540000Y-76200000D01*
X121920000Y-73030000D02*
X125095000Y-73030000D01*
X126370000Y-73030000D02*
X129540000Y-76200000D01*
X125095000Y-73030000D02*
X126370000Y-73030000D01*
X127635000Y-70490000D02*
X125095000Y-73030000D01*
X128905000Y-70490000D02*
X127635000Y-70490000D01*
X101600000Y-113030000D02*
X101600000Y-88900000D01*
X111760000Y-113030000D02*
X101600000Y-113030000D01*
X116840000Y-83820000D02*
X101600000Y-83820000D01*
X101600000Y-83820000D02*
X101600000Y-88900000D01*
X101600000Y-83820000D02*
X101600000Y-67310000D01*
X101600000Y-67310000D02*
X106680000Y-67310000D01*
X131445000Y-67405000D02*
X131445000Y-70490000D01*
X121920000Y-67945000D02*
X121920000Y-73030000D01*
X113194999Y-68839999D02*
X113289999Y-68839999D01*
X112395000Y-68040000D02*
X113194999Y-68839999D01*
X113289999Y-68839999D02*
X114300000Y-69850000D01*
X121920000Y-67992500D02*
X121920000Y-67945000D01*
X120062500Y-69850000D02*
X121920000Y-67992500D01*
X114300000Y-69850000D02*
X120062500Y-69850000D01*
X107410000Y-68040000D02*
X106680000Y-67310000D01*
X112395000Y-68040000D02*
X107410000Y-68040000D01*
X131445000Y-67405000D02*
X174530000Y-67405000D01*
X177800000Y-70675000D02*
X177800000Y-71120000D01*
X174530000Y-67405000D02*
X177800000Y-70675000D01*
X105410000Y-104140000D02*
X106680000Y-104140000D01*
X106680000Y-104140000D02*
X109220000Y-106680000D01*
X109220000Y-106680000D02*
X109220000Y-109220000D01*
X124460000Y-67897500D02*
X126952500Y-65405000D01*
X124460000Y-67945000D02*
X124460000Y-67897500D01*
X126952500Y-65405000D02*
X131445000Y-65405000D01*
X116840000Y-101600000D02*
X118110000Y-101600000D01*
X123190000Y-96520000D02*
X123190000Y-90170000D01*
X118110000Y-101600000D02*
X123190000Y-96520000D01*
X109220000Y-88900000D02*
X104140000Y-88900000D01*
X106680000Y-72390000D02*
X109220000Y-74930000D01*
X109220000Y-74930000D02*
X109220000Y-81280000D01*
X109220000Y-81280000D02*
X114300000Y-81280000D01*
X114300000Y-81280000D02*
X114300000Y-78740000D01*
X175260000Y-73660000D02*
X172720000Y-71120000D01*
X144780000Y-71120000D02*
X139700000Y-76200000D01*
X172720000Y-71120000D02*
X170180000Y-68580000D01*
X170180000Y-68580000D02*
X147320000Y-68580000D01*
X147320000Y-68580000D02*
X144780000Y-71120000D01*
X172720000Y-76200000D02*
X175260000Y-78740000D01*
X167640000Y-76200000D02*
X172720000Y-76200000D01*
X162560000Y-71120000D02*
X167640000Y-76200000D01*
X147320000Y-71120000D02*
X162560000Y-71120000D01*
X142240000Y-76200000D02*
X147320000Y-71120000D01*
X175260000Y-83820000D02*
X172720000Y-81280000D01*
X172720000Y-81280000D02*
X167640000Y-81280000D01*
X167640000Y-81280000D02*
X160020000Y-73660000D01*
X160020000Y-73660000D02*
X147320000Y-73660000D01*
X147320000Y-73660000D02*
X144780000Y-76200000D01*
X167640000Y-86360000D02*
X157480000Y-76200000D01*
X172720000Y-86360000D02*
X167640000Y-86360000D01*
X157480000Y-76200000D02*
X147320000Y-76200000D01*
X175260000Y-88900000D02*
X172720000Y-86360000D01*
X175260000Y-93980000D02*
X172720000Y-91440000D01*
X172720000Y-91440000D02*
X167640000Y-91440000D01*
X167640000Y-91440000D02*
X157480000Y-81280000D01*
X147320000Y-81280000D02*
X144780000Y-83820000D01*
X157480000Y-81280000D02*
X147320000Y-81280000D01*
X175260000Y-99060000D02*
X172720000Y-96520000D01*
X172720000Y-96520000D02*
X167640000Y-96520000D01*
X167640000Y-96520000D02*
X157480000Y-86360000D01*
X157480000Y-86360000D02*
X144780000Y-86360000D01*
X144780000Y-86360000D02*
X142240000Y-83820000D01*
X175260000Y-104140000D02*
X172720000Y-101600000D01*
X172720000Y-101600000D02*
X167640000Y-101600000D01*
X167640000Y-101600000D02*
X154940000Y-88900000D01*
X154940000Y-88900000D02*
X144780000Y-88900000D01*
X139700000Y-83820000D02*
X144780000Y-88900000D01*
X144780000Y-91440000D02*
X137160000Y-83820000D01*
X152400000Y-91440000D02*
X144780000Y-91440000D01*
X167640000Y-106680000D02*
X152400000Y-91440000D01*
X172720000Y-106680000D02*
X167640000Y-106680000D01*
X175260000Y-109220000D02*
X172720000Y-106680000D01*
X116840000Y-91440000D02*
X113030000Y-95250000D01*
X113030000Y-95250000D02*
X113030000Y-104140000D01*
X113030000Y-104140000D02*
X116840000Y-107950000D01*
X116840000Y-107950000D02*
X116840000Y-109220000D01*
X116840000Y-88900000D02*
X114300000Y-91440000D01*
X114300000Y-91440000D02*
X113030000Y-92710000D01*
X114300000Y-109220000D02*
X114300000Y-106680000D01*
X114300000Y-106680000D02*
X111760000Y-104140000D01*
X111760000Y-104140000D02*
X111760000Y-93980000D01*
X111760000Y-93980000D02*
X113030000Y-92710000D01*
X109220000Y-93980000D02*
X105410000Y-93980000D01*
X105410000Y-93980000D02*
X105410000Y-102240000D01*
X104420051Y-102240000D02*
X102870000Y-103790051D01*
X105410000Y-102240000D02*
X104420051Y-102240000D01*
X102870000Y-103790051D02*
X102870000Y-109220000D01*
X102870000Y-109220000D02*
X106680000Y-109220000D01*
X129540000Y-107950000D02*
X130810000Y-109220000D01*
X133602330Y-109220000D02*
X135890000Y-106932330D01*
X130810000Y-109220000D02*
X133602330Y-109220000D01*
X135890000Y-85090000D02*
X134620000Y-83820000D01*
X135890000Y-106932330D02*
X135890000Y-85090000D01*
X129540000Y-106680000D02*
X129540000Y-107950000D01*
X109220000Y-104140000D02*
X109220000Y-101600000D01*
X113030000Y-111760000D02*
X113030000Y-107950000D01*
X128587600Y-106680000D02*
X123507600Y-111760000D01*
X129540000Y-106680000D02*
X128587600Y-106680000D01*
X113030000Y-107950000D02*
X109220000Y-104140000D01*
X123507600Y-111760000D02*
X113030000Y-111760000D01*
X130810000Y-105410000D02*
X132080000Y-106680000D01*
X130810000Y-85090000D02*
X130810000Y-105410000D01*
X132080000Y-83820000D02*
X130810000Y-85090000D01*
X129540000Y-83820000D02*
X130810000Y-82550000D01*
X130810000Y-82550000D02*
X133350000Y-82550000D01*
X133350000Y-105410000D02*
X134620000Y-106680000D01*
X133350000Y-82550000D02*
X133350000Y-105410000D01*
X118110000Y-87630000D02*
X111760000Y-87630000D01*
X127000000Y-78740000D02*
X118110000Y-87630000D01*
X134620000Y-78740000D02*
X127000000Y-78740000D01*
X111760000Y-91440000D02*
X109220000Y-91440000D01*
X111760000Y-87630000D02*
X111760000Y-91440000D01*
X137160000Y-76200000D02*
X134620000Y-78740000D01*
M02*
